<svg width="24" height="24" viewBox="0 0 24 24" fill="none" xmlns="http://www.w3.org/2000/svg">
<path d="M20.9369 10.3591L15.2816 9.87154L13.0733 4.70528C12.676 3.76491 11.3206 3.76491 10.9233 4.70528L8.71497 9.88315L3.07141 10.3591C2.04318 10.4404 1.62254 11.7175 2.4054 12.3908L6.69357 16.0827L5.40829 21.5624C5.1746 22.5608 6.26125 23.3502 7.14926 22.8162L11.9983 19.9138L16.8473 22.8278C17.7353 23.3619 18.822 22.5724 18.5883 21.574L17.303 16.0827L21.5912 12.3908C22.374 11.7175 21.9651 10.4404 20.9369 10.3591ZM11.9983 17.7428L7.60496 20.3782L8.7734 15.4093L4.89418 12.0657L10.0119 11.6246L11.9983 6.94593L13.9963 11.6362L19.1141 12.0774L15.2349 15.4209L16.4033 20.3898L11.9983 17.7428Z" fill="#424242"/>
</svg>
